<mxfile host="65bd71144e">
    <diagram id="ND8eRQ8LZx91KXsZMHml" name="Page-1">
        <mxGraphModel dx="798" dy="595" grid="0" gridSize="10" guides="1" tooltips="1" connect="1" arrows="1" fold="1" page="1" pageScale="1" pageWidth="1169" pageHeight="827" background="#ffffff" math="0" shadow="1">
            <root>
                <mxCell id="0"/>
                <mxCell id="1" parent="0"/>
                <mxCell id="14" value="" style="edgeStyle=none;html=1;fontColor=#1A1A1A;endArrow=none;endFill=0;fillColor=#b0e3e6;strokeColor=#0e8088;" parent="1" source="12" target="13" edge="1">
                    <mxGeometry relative="1" as="geometry"/>
                </mxCell>
                <mxCell id="12" value="&lt;font color=&quot;#000000&quot;&gt;Cultivo&lt;/font&gt;" style="whiteSpace=wrap;html=1;fillColor=#b0e3e6;strokeColor=#0e8088;" parent="1" vertex="1">
                    <mxGeometry x="420" y="351" width="120" height="60" as="geometry"/>
                </mxCell>
                <mxCell id="13" value="&lt;font color=&quot;#1a1a1a&quot;&gt;id_cultivo&lt;/font&gt;" style="ellipse;whiteSpace=wrap;html=1;fillColor=#b0e3e6;strokeColor=#0e8088;" parent="1" vertex="1">
                    <mxGeometry x="430" y="261" width="100" height="50" as="geometry"/>
                </mxCell>
                <mxCell id="21" value="" style="edgeStyle=none;html=1;fontColor=#1A1A1A;endArrow=none;endFill=0;fillColor=#b0e3e6;strokeColor=#0e8088;exitX=0.75;exitY=0;exitDx=0;exitDy=0;entryX=0.5;entryY=1;entryDx=0;entryDy=0;" parent="1" source="12" target="22" edge="1">
                    <mxGeometry relative="1" as="geometry">
                        <mxPoint x="510" y="371" as="sourcePoint"/>
                    </mxGeometry>
                </mxCell>
                <mxCell id="22" value="&lt;font color=&quot;#1a1a1a&quot;&gt;nombre_comun&lt;/font&gt;" style="ellipse;whiteSpace=wrap;html=1;fillColor=#b0e3e6;strokeColor=#0e8088;" parent="1" vertex="1">
                    <mxGeometry x="559" y="283" width="100" height="50" as="geometry"/>
                </mxCell>
                <mxCell id="23" value="" style="edgeStyle=none;html=1;fontColor=#1A1A1A;endArrow=none;endFill=0;fillColor=#b0e3e6;strokeColor=#0e8088;exitX=0.25;exitY=0;exitDx=0;exitDy=0;" parent="1" source="12" target="24" edge="1">
                    <mxGeometry relative="1" as="geometry">
                        <mxPoint x="360" y="351" as="sourcePoint"/>
                    </mxGeometry>
                </mxCell>
                <mxCell id="24" value="&lt;font color=&quot;#1a1a1a&quot;&gt;nombre_cientifico&lt;/font&gt;" style="ellipse;whiteSpace=wrap;html=1;fillColor=#b0e3e6;strokeColor=#0e8088;" parent="1" vertex="1">
                    <mxGeometry x="310" y="283" width="100" height="50" as="geometry"/>
                </mxCell>
                <mxCell id="25" value="" style="edgeStyle=none;html=1;fontColor=#1A1A1A;endArrow=none;endFill=0;fillColor=#b0e3e6;strokeColor=#0e8088;exitX=0;exitY=0.5;exitDx=0;exitDy=0;" parent="1" source="12" target="26" edge="1">
                    <mxGeometry relative="1" as="geometry">
                        <mxPoint x="320" y="441" as="sourcePoint"/>
                    </mxGeometry>
                </mxCell>
                <mxCell id="26" value="&lt;font color=&quot;#1a1a1a&quot;&gt;descripcion&lt;/font&gt;" style="ellipse;whiteSpace=wrap;html=1;fillColor=#b0e3e6;strokeColor=#0e8088;" parent="1" vertex="1">
                    <mxGeometry x="264" y="356" width="100" height="50" as="geometry"/>
                </mxCell>
                <mxCell id="28" value="" style="edgeStyle=none;html=1;fontColor=#1A1A1A;endArrow=none;endFill=0;fillColor=#b0e3e6;strokeColor=#0e8088;" parent="1" source="29" target="30" edge="1">
                    <mxGeometry relative="1" as="geometry"/>
                </mxCell>
                <mxCell id="46" value="" style="edgeStyle=none;html=1;fillColor=#b0e3e6;strokeColor=#0e8088;endArrow=none;endFill=0;" parent="1" source="29" target="45" edge="1">
                    <mxGeometry relative="1" as="geometry"/>
                </mxCell>
                <mxCell id="48" value="" style="edgeStyle=none;html=1;fontColor=#1A1A1A;endArrow=none;endFill=0;fillColor=#b0e3e6;strokeColor=#0e8088;" parent="1" source="29" target="47" edge="1">
                    <mxGeometry relative="1" as="geometry"/>
                </mxCell>
                <mxCell id="29" value="&lt;font color=&quot;#000000&quot;&gt;Enfermedad_Plaga&lt;/font&gt;" style="whiteSpace=wrap;html=1;fillColor=#b0e3e6;strokeColor=#0e8088;" parent="1" vertex="1">
                    <mxGeometry x="418" y="598" width="120" height="60" as="geometry"/>
                </mxCell>
                <mxCell id="30" value="&lt;font color=&quot;#1a1a1a&quot;&gt;id_enf_plag&lt;/font&gt;" style="ellipse;whiteSpace=wrap;html=1;fillColor=#b0e3e6;strokeColor=#0e8088;" parent="1" vertex="1">
                    <mxGeometry x="428" y="711" width="100" height="50" as="geometry"/>
                </mxCell>
                <mxCell id="37" value="" style="edgeStyle=none;html=1;fontColor=#1A1A1A;endArrow=none;endFill=0;fillColor=#b0e3e6;strokeColor=#0e8088;exitX=0.75;exitY=1;exitDx=0;exitDy=0;" parent="1" source="29" target="38" edge="1">
                    <mxGeometry relative="1" as="geometry">
                        <mxPoint x="598" y="608" as="sourcePoint"/>
                    </mxGeometry>
                </mxCell>
                <mxCell id="38" value="&lt;font color=&quot;#1a1a1a&quot;&gt;nombre&lt;/font&gt;" style="ellipse;whiteSpace=wrap;html=1;fillColor=#b0e3e6;strokeColor=#0e8088;" parent="1" vertex="1">
                    <mxGeometry x="538" y="681" width="120" height="50" as="geometry"/>
                </mxCell>
                <mxCell id="39" value="" style="edgeStyle=none;html=1;fontColor=#1A1A1A;endArrow=none;endFill=0;fillColor=#b0e3e6;strokeColor=#0e8088;exitX=0.25;exitY=1;exitDx=0;exitDy=0;" parent="1" source="29" target="40" edge="1">
                    <mxGeometry relative="1" as="geometry">
                        <mxPoint x="478" y="645" as="sourcePoint"/>
                    </mxGeometry>
                </mxCell>
                <mxCell id="40" value="&lt;font color=&quot;#1a1a1a&quot;&gt;sintomas&lt;/font&gt;" style="ellipse;whiteSpace=wrap;html=1;fillColor=#b0e3e6;strokeColor=#0e8088;" parent="1" vertex="1">
                    <mxGeometry x="318" y="681" width="100" height="50" as="geometry"/>
                </mxCell>
                <mxCell id="41" value="" style="edgeStyle=none;html=1;fontColor=#1A1A1A;endArrow=none;endFill=0;fillColor=#b0e3e6;strokeColor=#0e8088;exitX=0;exitY=0.5;exitDx=0;exitDy=0;" parent="1" source="29" target="42" edge="1">
                    <mxGeometry relative="1" as="geometry">
                        <mxPoint x="298" y="561" as="sourcePoint"/>
                    </mxGeometry>
                </mxCell>
                <mxCell id="42" value="&lt;font color=&quot;#1a1a1a&quot;&gt;medidas_prevencion&lt;/font&gt;" style="ellipse;whiteSpace=wrap;html=1;fillColor=#b0e3e6;strokeColor=#0e8088;" parent="1" vertex="1">
                    <mxGeometry x="248" y="604.5" width="120" height="50" as="geometry"/>
                </mxCell>
                <mxCell id="45" value="&lt;font color=&quot;#1a1a1a&quot;&gt;control_quimico&lt;/font&gt;" style="ellipse;whiteSpace=wrap;html=1;fillColor=#b0e3e6;strokeColor=#0e8088;" parent="1" vertex="1">
                    <mxGeometry x="593" y="601.5" width="100" height="53" as="geometry"/>
                </mxCell>
                <mxCell id="59" value="" style="edgeStyle=none;html=1;fontColor=#1A1A1A;endArrow=none;endFill=0;" parent="1" source="47" target="12" edge="1">
                    <mxGeometry relative="1" as="geometry"/>
                </mxCell>
                <mxCell id="60" value="" style="edgeStyle=none;html=1;fontColor=#1A1A1A;endArrow=none;endFill=0;" parent="1" source="47" target="12" edge="1">
                    <mxGeometry relative="1" as="geometry"/>
                </mxCell>
                <mxCell id="47" value="&lt;font color=&quot;#1a1a1a&quot;&gt;Afectado&lt;/font&gt;" style="rhombus;whiteSpace=wrap;html=1;fillColor=#b0e3e6;strokeColor=#0e8088;" parent="1" vertex="1">
                    <mxGeometry x="440" y="464" width="80" height="80" as="geometry"/>
                </mxCell>
                <mxCell id="49" value="" style="edgeStyle=none;html=1;fontColor=#1A1A1A;endArrow=none;endFill=0;fillColor=#b0e3e6;strokeColor=#0e8088;entryX=0.5;entryY=1;entryDx=0;entryDy=0;exitX=0.5;exitY=0;exitDx=0;exitDy=0;" parent="1" source="47" target="12" edge="1">
                    <mxGeometry relative="1" as="geometry">
                        <mxPoint x="480" y="466" as="sourcePoint"/>
                        <mxPoint x="591" y="497" as="targetPoint"/>
                    </mxGeometry>
                </mxCell>
                <mxCell id="61" value="" style="edgeStyle=none;html=1;fontColor=#1A1A1A;endArrow=none;endFill=0;fillColor=#b0e3e6;strokeColor=#0e8088;" parent="1" source="62" target="63" edge="1">
                    <mxGeometry relative="1" as="geometry"/>
                </mxCell>
                <mxCell id="62" value="&lt;font color=&quot;#000000&quot;&gt;Usuario&lt;/font&gt;" style="whiteSpace=wrap;html=1;fillColor=#b0e3e6;strokeColor=#0e8088;" parent="1" vertex="1">
                    <mxGeometry x="805" y="426" width="120" height="60" as="geometry"/>
                </mxCell>
                <mxCell id="63" value="&lt;font color=&quot;#1a1a1a&quot;&gt;id_usuario&lt;/font&gt;" style="ellipse;whiteSpace=wrap;html=1;fillColor=#b0e3e6;strokeColor=#0e8088;" parent="1" vertex="1">
                    <mxGeometry x="815" y="336" width="100" height="50" as="geometry"/>
                </mxCell>
                <mxCell id="64" value="" style="edgeStyle=none;html=1;fontColor=#1A1A1A;endArrow=none;endFill=0;fillColor=#b0e3e6;strokeColor=#0e8088;exitX=0.75;exitY=0;exitDx=0;exitDy=0;entryX=0.5;entryY=1;entryDx=0;entryDy=0;" parent="1" source="62" target="65" edge="1">
                    <mxGeometry relative="1" as="geometry">
                        <mxPoint x="895" y="446" as="sourcePoint"/>
                    </mxGeometry>
                </mxCell>
                <mxCell id="65" value="&lt;font color=&quot;#1a1a1a&quot;&gt;nombre&lt;/font&gt;" style="ellipse;whiteSpace=wrap;html=1;fillColor=#b0e3e6;strokeColor=#0e8088;" parent="1" vertex="1">
                    <mxGeometry x="927" y="358" width="100" height="50" as="geometry"/>
                </mxCell>
                <mxCell id="66" value="" style="edgeStyle=none;html=1;fontColor=#1A1A1A;endArrow=none;endFill=0;fillColor=#b0e3e6;strokeColor=#0e8088;exitX=0.25;exitY=0;exitDx=0;exitDy=0;" parent="1" source="62" target="67" edge="1">
                    <mxGeometry relative="1" as="geometry">
                        <mxPoint x="745" y="426" as="sourcePoint"/>
                    </mxGeometry>
                </mxCell>
                <mxCell id="67" value="&lt;font color=&quot;#1a1a1a&quot;&gt;apellido&lt;/font&gt;" style="ellipse;whiteSpace=wrap;html=1;fillColor=#b0e3e6;strokeColor=#0e8088;" parent="1" vertex="1">
                    <mxGeometry x="705" y="358" width="100" height="50" as="geometry"/>
                </mxCell>
                <mxCell id="68" value="" style="edgeStyle=none;html=1;fontColor=#1A1A1A;endArrow=none;endFill=0;fillColor=#b0e3e6;strokeColor=#0e8088;exitX=0;exitY=0.5;exitDx=0;exitDy=0;" parent="1" source="62" target="69" edge="1">
                    <mxGeometry relative="1" as="geometry">
                        <mxPoint x="705" y="516" as="sourcePoint"/>
                    </mxGeometry>
                </mxCell>
                <mxCell id="69" value="&lt;font color=&quot;#1a1a1a&quot;&gt;email&lt;/font&gt;" style="ellipse;whiteSpace=wrap;html=1;fillColor=#b0e3e6;strokeColor=#0e8088;" parent="1" vertex="1">
                    <mxGeometry x="676" y="432" width="100" height="50" as="geometry"/>
                </mxCell>
                <mxCell id="70" value="" style="edgeStyle=none;html=1;fontColor=#1A1A1A;endArrow=none;endFill=0;fillColor=#b0e3e6;strokeColor=#0e8088;exitX=0.5;exitY=1;exitDx=0;exitDy=0;" parent="1" source="62" target="71" edge="1">
                    <mxGeometry relative="1" as="geometry">
                        <mxPoint x="912" y="573" as="sourcePoint"/>
                    </mxGeometry>
                </mxCell>
                <mxCell id="71" value="&lt;font color=&quot;#1a1a1a&quot;&gt;num_telefono&lt;/font&gt;" style="ellipse;whiteSpace=wrap;html=1;fillColor=#b0e3e6;strokeColor=#0e8088;" parent="1" vertex="1">
                    <mxGeometry x="815" y="512" width="100" height="50" as="geometry"/>
                </mxCell>
                <mxCell id="72" value="1" style="text;html=1;align=center;verticalAlign=middle;resizable=0;points=[];autosize=1;strokeColor=none;fillColor=none;fontColor=#1A1A1A;" parent="1" vertex="1">
                    <mxGeometry x="482" y="417" width="17" height="18" as="geometry"/>
                </mxCell>
                <mxCell id="73" value="N" style="text;html=1;align=center;verticalAlign=middle;resizable=0;points=[];autosize=1;strokeColor=none;fillColor=none;fontColor=#1A1A1A;" parent="1" vertex="1">
                    <mxGeometry x="483" y="577" width="19" height="18" as="geometry"/>
                </mxCell>
            </root>
        </mxGraphModel>
    </diagram>
</mxfile>